<svg width="60" height="61" viewBox="0 0 60 61" fill="none" xmlns="http://www.w3.org/2000/svg">
<circle cx="30" cy="30.3887" r="30" fill="white"/>
<path fill-rule="evenodd" clip-rule="evenodd" d="M17 39.0794V21.4092H25.2008C27.8349 21.4092 29.9703 23.5362 29.9703 26.16C29.9703 27.8272 29.4556 28.86 27.5684 29.9196C29.8267 30.9445 30.4539 32.3651 30.4539 34.3465C30.4539 37.0269 28.0633 39.0794 25.3724 39.0794H17ZM20.4702 24.3342V28.5832H24.5318C24.5318 28.5832 26.5058 28.5832 26.5058 26.4587C26.5058 24.3342 24.5318 24.3342 24.5318 24.3342H20.4702ZM20.4702 36.0868V31.4988H24.8268C25.5302 31.4988 27.005 31.8604 27.005 34.0301C27.005 35.6393 25.5528 36.0717 24.8268 36.0868H20.4702Z" fill="#0E88FA"/>
<path fill-rule="evenodd" clip-rule="evenodd" d="M37.8736 26.2779C35.3777 26.2779 31.6792 28.0634 31.6792 32.8096C31.6792 35.6997 33.2675 39.4092 38.0325 39.4092C41.8444 39.4092 43.5991 36.6217 44 35.228H40.4149C40.2334 35.8608 39.53 36.5614 38.0325 36.5614C35.8542 36.5614 35.0827 34.7081 34.9693 33.7815H44V32.8096C44 28.0634 40.3696 26.2779 37.8736 26.2779ZM37.8736 28.99C35.8406 28.99 35.0903 30.6625 34.9693 31.4988H40.4149C40.4149 30.6625 39.9067 28.99 37.8736 28.99Z" fill="#0E88FA"/>
<path d="M33.5398 22.4131V24.6054H42.094V22.4131H33.5398Z" fill="#0E88FA"/>
</svg>
