<svg width="22" height="16" viewBox="0 0 22 16" fill="none" xmlns="http://www.w3.org/2000/svg">
<path fill-rule="evenodd" clip-rule="evenodd" d="M0 15.0647V0.666748H6.68215C8.82847 0.666748 10.5684 2.39986 10.5684 4.53775C10.5684 5.89628 10.149 6.73783 8.61129 7.60115C10.4514 8.43629 10.9625 9.59377 10.9625 11.2083C10.9625 13.3923 9.01458 15.0647 6.82192 15.0647H0ZM2.8276 3.05008V6.51225H6.13701C6.13701 6.51225 7.74549 6.51225 7.74549 4.78117C7.74549 3.05008 6.13701 3.05008 6.13701 3.05008H2.8276ZM2.8276 12.6263V8.88789H6.37736C6.9505 8.88789 8.15224 9.18254 8.15224 10.9505C8.15224 12.2617 6.96898 12.614 6.37736 12.6263H2.8276Z" fill="white"/>
<path fill-rule="evenodd" clip-rule="evenodd" d="M17.0082 4.63384C14.9744 4.63384 11.9608 6.08869 11.9608 9.956C11.9608 12.3109 13.255 15.3334 17.1376 15.3334C20.2436 15.3334 21.6734 13.0621 22 11.9265H19.0788C18.9309 12.4421 18.3578 13.013 17.1376 13.013C15.3627 13.013 14.7341 11.5029 14.6416 10.7479H22V9.956C22 6.08869 19.0419 4.63384 17.0082 4.63384ZM17.0082 6.84374C15.3516 6.84374 14.7402 8.2065 14.6416 8.88789H19.0788C19.0788 8.2065 18.6647 6.84374 17.0082 6.84374Z" fill="white"/>
<path d="M13.4769 1.48474V3.27107H20.447V1.48474H13.4769Z" fill="white"/>
</svg>
