<svg width="22" height="16" viewBox="0 0 22 16" fill="none" xmlns="http://www.w3.org/2000/svg">
<path fill-rule="evenodd" clip-rule="evenodd" d="M0 15.0645V0.666504H6.68215C8.82847 0.666504 10.5684 2.39961 10.5684 4.53751C10.5684 5.89604 10.149 6.73758 8.61129 7.6009C10.4514 8.43605 10.9625 9.59352 10.9625 11.208C10.9625 13.3921 9.01458 15.0645 6.82192 15.0645H0ZM2.8276 3.04984V6.51201H6.13701C6.13701 6.51201 7.74549 6.51201 7.74549 4.78092C7.74549 3.04984 6.13701 3.04984 6.13701 3.04984H2.8276ZM2.8276 12.626V8.88764H6.37736C6.9505 8.88764 8.15224 9.1823 8.15224 10.9502C8.15224 12.2614 6.96898 12.6138 6.37736 12.626H2.8276Z" fill="#416BFF"/>
<path fill-rule="evenodd" clip-rule="evenodd" d="M17.0082 4.6336C14.9744 4.6336 11.9608 6.08844 11.9608 9.95576C11.9608 12.3106 13.255 15.3332 17.1376 15.3332C20.2436 15.3332 21.6734 13.0619 22 11.9263H19.0788C18.9309 12.4419 18.3578 13.0128 17.1376 13.0128C15.3627 13.0128 14.7341 11.5027 14.6416 10.7476H22V9.95576C22 6.08844 19.0419 4.6336 17.0082 4.6336ZM17.0082 6.84349C15.3516 6.84349 14.7402 8.20626 14.6416 8.88764H19.0788C19.0788 8.20626 18.6647 6.84349 17.0082 6.84349Z" fill="#416BFF"/>
<path d="M13.4769 1.4845V3.27083H20.447V1.4845H13.4769Z" fill="#416BFF"/>
</svg>
