<svg width="241" height="132" viewBox="0 0 241 132" fill="none" xmlns="http://www.w3.org/2000/svg">
<path fill-rule="evenodd" clip-rule="evenodd" d="M183.253 102.012C183.253 86.1882 197.631 74.6809 213.184 75.2578C228.127 75.812 241 86.8085 241 102.012C241 117.216 228.127 128.212 213.184 128.766C197.631 129.343 183.253 117.836 183.253 102.012ZM213.184 95.168C209.455 94.4478 206.078 98.1545 206.174 102.012C206.268 105.779 209.543 109.224 213.184 108.517C216.248 107.921 217.893 105.183 217.968 102.012C218.046 98.7339 216.352 95.78 213.184 95.168Z" fill="white"/>
<path fill-rule="evenodd" clip-rule="evenodd" d="M118.72 126.956V51.6144H142.308L141.781 84.0816C145.868 77.5203 150.741 75.3593 157.885 75.2578C170.512 75.0784 176.835 89.003 176.911 101.842C176.988 114.789 170.619 128.692 157.885 128.766C150.54 128.809 145.757 126.278 141.198 119.943L141.084 126.956H118.72ZM147.649 94.4892C143.889 94.477 141.489 98.5618 141.489 102.012C141.781 106.594 143.955 109.309 147.649 109.309C152.099 109.309 153.768 105.462 153.768 102.012C153.768 97.5431 151.398 94.5014 147.649 94.4892Z" fill="white"/>
<path d="M84.005 76.6153H108.038V126.956H84.005V76.6153Z" fill="white"/>
<path d="M82.8924 60.3251C83.3136 53.4802 89.7249 49.2374 96.4667 49.465C102.939 49.6836 108.743 53.754 109.151 60.3251C109.583 67.2793 103.316 72.4204 96.4667 72.6559C89.3621 72.9001 82.4485 67.5386 82.8924 60.3251Z" fill="white"/>
<path d="M39.9677 89.1413H72.7673C71.3554 78.8603 59.0827 56.1979 39.9677 54.208V89.1413Z" fill="#FFBC42"/>
<path d="M0 89.1413H34.1029V34.1987C29.65 19.4958 17.2687 1.47637 0 0.481445V89.1413Z" fill="white"/>
<path d="M36.3837 131.481C6.95091 130.376 0 104.839 0 94.3371H72.7673C72.7673 104.729 66.0336 130.376 36.3837 131.481Z" fill="white"/>
</svg>
