<svg width="238" height="86" viewBox="0 0 238 86" fill="none" xmlns="http://www.w3.org/2000/svg">
<path d="M0 84.2903C0.233903 80.3706 0.474893 74.5585 0.474893 69.448V0H10.8021V36.092H11.036C14.7217 29.6774 21.3632 25.5238 30.6272 25.5238C44.874 25.5238 54.9602 37.3962 54.8468 54.8468C54.8468 75.3877 41.9041 85.5944 29.082 85.5944C20.7678 85.5944 14.1263 82.3907 9.85229 74.7924H9.4908L9.0159 84.2903H0ZM10.8021 61.2614C10.8021 62.5656 11.036 63.8698 11.277 65.0606C13.297 72.3045 19.3502 77.2873 26.9485 77.2873C37.8711 77.2873 44.3991 68.3848 44.3991 55.2083C44.3991 43.6974 38.4665 33.838 27.3029 33.838C20.1795 33.838 13.5309 38.7075 11.3975 46.6602C11.1636 47.8439 10.8021 49.2685 10.8021 50.9342V61.2614Z" fill="white"/>
<path d="M78.5065 0.00720215H68.0588V84.2974H78.5065V0.00720215Z" fill="white"/>
<path d="M108.737 33.0796C108.878 37.1977 105.852 40.4936 101.046 40.4936C96.7863 40.4936 93.7669 37.1977 93.7669 33.0796C93.7669 28.8268 96.9281 25.5309 101.316 25.5309C105.852 25.5309 108.737 28.8268 108.737 33.0796Z" fill="white"/>
<path d="M108.737 67.8179C108.878 71.936 105.852 75.2319 101.046 75.2319C96.7863 75.2319 93.7669 71.936 93.7669 67.8179C93.7669 63.5651 96.9281 60.2692 101.316 60.2692C105.852 60.2692 108.737 63.5651 108.737 67.8179Z" fill="white"/>
<path d="M123.884 42.3861C123.884 36.4535 123.764 31.584 123.409 26.8351H132.673L133.269 36.333H133.503C136.352 30.8681 143 25.5309 152.498 25.5309C160.451 25.5309 172.798 30.2798 172.798 49.9844V84.2973H162.351V51.1752C162.351 41.9183 158.913 34.1995 149.054 34.1995C142.171 34.1995 136.827 39.0689 135.048 44.8811C134.573 46.1853 134.339 47.9714 134.339 49.7505V84.2973H123.891V42.3861H123.884Z" fill="white"/>
<path d="M200.136 53.1883H200.37C201.795 51.1682 203.808 48.6733 205.473 46.6603L222.328 26.8352H234.917L212.717 50.4594L238 84.2904H225.305L205.48 56.7465L200.136 62.6791V84.2833H189.809V0.00720215H200.136V53.1883Z" fill="white"/>
</svg>
