<svg width="404" height="432" viewBox="0 0 404 432" fill="none" xmlns="http://www.w3.org/2000/svg">
<path d="M301.819 397.132H156.802C142.539 397.132 130.868 385.449 130.868 371.17V52.0901C130.868 37.8112 142.539 26.126 156.802 26.126H301.819C316.082 26.126 327.753 37.8112 327.753 52.0901V371.17C327.753 385.449 316.082 397.132 301.819 397.132Z" fill="white"/>
<path opacity="0.1" d="M318.803 54.2834V365.72C318.803 376.284 310.183 384.928 299.653 384.928H159.776C149.246 384.928 140.63 376.284 140.63 365.72V54.2834C140.63 43.7191 149.246 35.0757 159.776 35.0757H299.653C310.183 35.0757 318.803 43.7191 318.803 54.2834Z" fill="url(#paint0_linear_1_656)"/>
<rect x="168.293" y="132.709" width="214.783" height="65.0888" rx="32.5444" fill="white"/>
<rect x="180.515" y="140.857" width="48.8853" height="48.8853" rx="24.4427" fill="url(#paint1_linear_1_656)"/>
<g opacity="0.4">
<rect x="237.547" y="169.373" width="79.0312" height="9.77706" rx="4.88853" fill="url(#paint2_linear_1_656)"/>
</g>
<g opacity="0.4">
<rect x="320.652" y="169.374" width="40.7378" height="9.77706" rx="4.88853" fill="url(#paint3_linear_1_656)"/>
</g>
<rect x="237.547" y="151.449" width="57.0329" height="9.77706" rx="4.88853" fill="url(#paint4_linear_1_656)"/>
<rect x="298.653" y="151.449" width="47.2558" height="9.77706" rx="4.88853" fill="url(#paint5_linear_1_656)"/>
<rect x="79.6137" y="221.393" width="214.783" height="65.0888" rx="32.5444" fill="white"/>
<rect x="233.603" y="229.54" width="48.8853" height="48.8853" rx="24.4427" fill="url(#paint6_linear_1_656)"/>
<g opacity="0.4">
<rect x="101.612" y="258.057" width="79.0312" height="9.77706" rx="4.88853" fill="url(#paint7_linear_1_656)"/>
</g>
<g opacity="0.4">
<rect x="184.717" y="258.056" width="40.7378" height="9.77706" rx="4.88853" fill="url(#paint8_linear_1_656)"/>
</g>
<rect x="117.092" y="240.132" width="57.0329" height="9.77706" rx="4.88853" fill="url(#paint9_linear_1_656)"/>
<rect x="178.199" y="240.132" width="47.2558" height="9.77706" rx="4.88853" fill="url(#paint10_linear_1_656)"/>
<rect x="344.838" y="311.703" width="59.1622" height="59.1648" rx="20" fill="white" fill-opacity="0.3"/>
<path d="M386.586 332.854H366.944C366.499 332.856 366.067 333 365.709 333.265C365.351 333.531 365.087 333.904 364.953 334.33L359.519 351.46C359.47 351.607 359.471 351.766 359.521 351.912C359.572 352.058 359.669 352.184 359.798 352.268C359.927 352.352 360.08 352.391 360.233 352.379C360.387 352.366 360.532 352.303 360.645 352.198L363.932 349.286H381.741C382.187 349.289 382.621 349.146 382.979 348.88C383.338 348.614 383.602 348.239 383.732 347.81L387.909 334.633C387.965 334.427 387.973 334.21 387.933 334C387.893 333.789 387.806 333.591 387.679 333.419C387.551 333.248 387.386 333.108 387.197 333.01C387.008 332.912 386.799 332.859 386.586 332.854ZM370.178 342.078C369.96 342.311 369.682 342.477 369.374 342.557C369.067 342.638 368.743 342.629 368.44 342.533C368.137 342.437 367.868 342.257 367.662 342.013C367.456 341.769 367.323 341.473 367.277 341.156C367.232 340.84 367.276 340.517 367.404 340.225C367.533 339.932 367.74 339.682 368.004 339.504C368.267 339.325 368.575 339.224 368.892 339.213C369.21 339.203 369.524 339.282 369.798 339.443C370 339.595 370.17 339.785 370.299 340.003C370.427 340.222 370.511 340.463 370.546 340.714C370.582 340.965 370.567 341.221 370.504 341.466C370.441 341.712 370.33 341.942 370.178 342.144V342.078ZM375.757 342.078C375.539 342.311 375.26 342.477 374.953 342.557C374.645 342.638 374.322 342.629 374.019 342.533C373.716 342.437 373.446 342.257 373.24 342.013C373.035 341.769 372.901 341.473 372.856 341.156C372.81 340.84 372.854 340.517 372.983 340.225C373.111 339.932 373.319 339.682 373.582 339.504C373.845 339.325 374.153 339.224 374.471 339.213C374.788 339.203 375.102 339.282 375.377 339.443C375.58 339.594 375.751 339.784 375.881 340.002C376.01 340.22 376.095 340.462 376.13 340.713C376.166 340.965 376.151 341.221 376.087 341.467C376.023 341.712 375.91 341.943 375.757 342.144V342.078ZM381.335 342.078C381.264 342.326 381.138 342.555 380.967 342.747C380.795 342.938 380.583 343.088 380.345 343.185C380.107 343.282 379.851 343.323 379.595 343.305C379.339 343.287 379.091 343.211 378.868 343.082C378.646 342.953 378.456 342.775 378.312 342.561C378.169 342.348 378.075 342.104 378.039 341.848C378.003 341.593 378.025 341.333 378.104 341.087C378.183 340.842 378.316 340.617 378.494 340.431C378.698 339.975 379.069 339.616 379.531 339.429C379.992 339.242 380.507 339.243 380.968 339.43C381.173 339.582 381.344 339.773 381.474 339.993C381.603 340.212 381.687 340.456 381.722 340.709C381.756 340.962 381.739 341.22 381.673 341.466C381.606 341.713 381.492 341.943 381.335 342.144V342.078Z" fill="#F6F9FB"/>
<rect x="42.1886" y="57.041" width="59.1622" height="59.1648" rx="20" fill="white" fill-opacity="0.3"/>
<path d="M57.9873 84.7932C59.4233 88.5794 71.7403 98.5272 71.7403 98.5272C71.7403 98.5272 75.7571 95.2637 79.474 91.7486C82.2561 89.1491 84.8583 86.4105 85.4751 84.7932C86.9336 81.0285 85.3819 75.6433 80.0009 74.7297C74.638 73.8172 71.7403 79.4295 71.7403 79.4295C71.7403 79.4295 68.8458 73.8172 63.4615 74.7297C62.5266 74.8915 61.7042 75.1881 60.9975 75.5962C57.6446 77.4695 56.7997 81.6894 57.9873 84.7932Z" fill="white"/>
<path opacity="0.3" d="M401.989 24.8975C401.989 38.6726 390.814 49.7186 377.169 49.7186C376.26 49.7186 375.35 49.7186 374.44 49.5886C369.762 49.0688 365.344 47.2495 361.576 44.2605L350.53 45.9499L355.078 36.4634C348.711 24.2478 353.389 9.30317 365.474 2.93547C377.689 -3.43222 392.633 1.24608 399 13.3317C401.08 16.8404 401.989 20.869 401.989 24.8975Z" fill="white"/>
<path d="M368.965 24.3209L374.293 29.519L384.169 19.6426" stroke="white" stroke-width="2" stroke-linecap="round" stroke-linejoin="round"/>
<g clip-path="url(#clip0_1_656)">
<rect x="0.695312" y="320.653" width="110.436" height="110.441" rx="55.218" fill="white" fill-opacity="0.3"/>
<path d="M82.2434 402.291C80.6389 414.736 69.5305 412.394 64.7168 411.532C64.3465 414.243 64.2231 416.953 64.47 419.787C64.8402 424.1 66.4448 427.18 68.543 431.369C68.543 431.369 63.1123 440.857 50.1524 439.255C49.7822 439.255 49.4119 439.132 49.0416 439.132C41.636 437.9 34.7241 434.573 29.1699 429.644C30.7744 428.536 32.2555 427.303 33.6132 425.825C42.5 416.214 43.7342 401.305 43.7342 401.305C40.2783 399.087 37.5629 395.884 35.7115 392.187C33.2429 387.135 35.7115 384.425 35.7115 384.425C35.7115 384.425 41.5125 379.989 47.5605 390.216C48.9182 384.794 48.301 379.25 45.9559 374.198L46.4496 374.321C49.9056 375.307 70.5179 380.728 76.6892 368.653C76.6892 368.653 78.6641 370.255 79.6515 374.937C82.7371 383.932 83.6011 393.173 82.2434 402.291Z" fill="#FFACAB"/>
<path d="M29.5484 372.678C30.0395 375.859 31.3901 378.551 35.6874 384.057C35.6874 384.057 41.4582 379.652 47.4745 389.807C48.825 384.424 48.2112 378.918 45.8783 373.901C45.8783 373.901 69.6979 381.487 76.4509 368.395C79.3976 364.725 79.3976 358.118 79.3976 358.118C79.3976 358.118 80.871 352.122 76.0825 348.452C72.0307 345.271 64.6638 346.984 62.8221 348.941C62.8221 348.941 45.7555 344.537 35.4419 353.713C30.5306 358.607 28.1978 365.704 29.5484 372.678Z" fill="#741648"/>
<path d="M75.5436 356.45C75.5436 356.45 75.5436 375.829 51.1364 370.002" stroke="#571036" stroke-linecap="round" stroke-linejoin="round"/>
<path d="M58.4592 352.564C58.4592 352.564 43.4969 350.695 37.3649 358.919C30.4969 368.14 36.2611 377.361 37.3649 379.23" stroke="#571036" stroke-linecap="round" stroke-linejoin="round"/>
<path d="M53.5783 406.08C53.5783 406.08 56.7777 414.962 64.7124 419.911C64.4564 417.119 64.5844 414.201 64.9683 411.409C64.9683 411.409 57.6736 409.633 53.5783 406.08Z" fill="#F78489"/>
<path d="M45.4402 372.722C45.4402 372.722 48.6591 377.799 56.8302 379.231" stroke="#741648" stroke-linecap="round" stroke-linejoin="round"/>
<path d="M50.3228 439.437C49.9495 439.437 49.5762 439.31 49.2029 439.31C41.7371 438.041 34.7692 434.615 29.1699 429.54C30.7874 428.398 32.2805 427.129 33.6493 425.606C37.7554 431.57 43.6036 436.392 50.3228 439.437Z" fill="#F78489"/>
</g>
<g clip-path="url(#clip1_1_656)">
<rect x="79.6121" y="327.162" width="68.4816" height="28.1091" rx="14.0545" fill="white"/>
<rect x="94.6121" y="336.912" width="15.5172" height="15" rx="7.5" fill="#0051C4"/>
<g opacity="0.7">
<rect x="113.879" y="336.912" width="15.5172" height="15" rx="7.5" fill="#0051C4"/>
</g>
<g opacity="0.3">
<rect x="133.147" y="336.912" width="15.5172" height="15" rx="7.5" fill="#0051C4"/>
</g>
</g>
<defs>
<linearGradient id="paint0_linear_1_656" x1="229.717" y1="35.0757" x2="229.717" y2="384.928" gradientUnits="userSpaceOnUse">
<stop stop-color="#236FDA"/>
<stop offset="1" stop-color="#2A7FF8"/>
</linearGradient>
<linearGradient id="paint1_linear_1_656" x1="204.957" y1="140.857" x2="204.957" y2="189.742" gradientUnits="userSpaceOnUse">
<stop stop-color="#236FDA"/>
<stop offset="1" stop-color="#2A7FF8"/>
</linearGradient>
<linearGradient id="paint2_linear_1_656" x1="277.063" y1="169.373" x2="277.063" y2="179.15" gradientUnits="userSpaceOnUse">
<stop stop-color="#236FDA"/>
<stop offset="1" stop-color="#2A7FF8"/>
</linearGradient>
<linearGradient id="paint3_linear_1_656" x1="341.021" y1="169.374" x2="341.021" y2="179.151" gradientUnits="userSpaceOnUse">
<stop stop-color="#236FDA"/>
<stop offset="1" stop-color="#2A7FF8"/>
</linearGradient>
<linearGradient id="paint4_linear_1_656" x1="266.064" y1="151.449" x2="266.064" y2="161.226" gradientUnits="userSpaceOnUse">
<stop stop-color="#236FDA"/>
<stop offset="1" stop-color="#2A7FF8"/>
</linearGradient>
<linearGradient id="paint5_linear_1_656" x1="322.281" y1="151.449" x2="322.281" y2="161.226" gradientUnits="userSpaceOnUse">
<stop stop-color="#236FDA"/>
<stop offset="1" stop-color="#2A7FF8"/>
</linearGradient>
<linearGradient id="paint6_linear_1_656" x1="239.714" y1="239.317" x2="282.488" y2="253.983" gradientUnits="userSpaceOnUse">
<stop stop-color="#FF403E"/>
<stop offset="1" stop-color="#FF8145"/>
</linearGradient>
<linearGradient id="paint7_linear_1_656" x1="111.491" y1="260.012" x2="120.394" y2="284.685" gradientUnits="userSpaceOnUse">
<stop stop-color="#FF403E"/>
<stop offset="1" stop-color="#FF8145"/>
</linearGradient>
<linearGradient id="paint8_linear_1_656" x1="189.809" y1="260.012" x2="202.909" y2="278.726" gradientUnits="userSpaceOnUse">
<stop stop-color="#FF403E"/>
<stop offset="1" stop-color="#FF8145"/>
</linearGradient>
<linearGradient id="paint9_linear_1_656" x1="124.221" y1="242.087" x2="135.375" y2="264.395" gradientUnits="userSpaceOnUse">
<stop stop-color="#FF403E"/>
<stop offset="1" stop-color="#FF8145"/>
</linearGradient>
<linearGradient id="paint10_linear_1_656" x1="184.105" y1="242.087" x2="196.441" y2="262.529" gradientUnits="userSpaceOnUse">
<stop stop-color="#FF403E"/>
<stop offset="1" stop-color="#FF8145"/>
</linearGradient>
<clipPath id="clip0_1_656">
<rect x="0.695312" y="320.653" width="110.436" height="110.441" rx="55.218" fill="white"/>
</clipPath>
<clipPath id="clip1_1_656">
<rect x="79.6121" y="327.162" width="68.4816" height="28.1091" rx="14.0545" fill="white"/>
</clipPath>
</defs>
</svg>
