<svg width="96" height="97" viewBox="0 0 96 97" fill="none" xmlns="http://www.w3.org/2000/svg">
<path d="M0 8.096C0 4.11955 3.22355 0.895996 7.2 0.895996H88.8C92.7765 0.895996 96 4.11955 96 8.096V89.696C96 93.6724 92.7765 96.896 88.8 96.896H7.2C3.22355 96.896 0 93.6724 0 89.696V8.096Z" fill="white"/>
<path d="M53.5586 86.096C49.7698 86.096 45.9042 85.968 41.9618 85.712C38.0706 85.4048 34.3842 84.8672 30.9026 84.0992C27.4722 83.28 24.5026 82.0768 21.9938 80.4896L25.8338 74.2688H26.6018C29.213 75.5488 32.7202 76.5216 37.1234 77.1872C41.5266 77.8016 47.005 78.1088 53.5586 78.1088H74.909C75.8818 78.1088 76.8034 78.1344 77.6738 78.1856C78.5954 78.2368 79.3634 78.3136 79.9778 78.416C80.5922 78.4672 80.8994 78.4928 80.8994 78.4928L79.2098 79.4144C79.2098 79.2096 79.2098 79.0304 79.2098 78.8768C79.2098 78.7232 79.2098 78.544 79.2098 78.3392C79.1586 73.8336 78.493 70.2496 77.213 67.5872C75.9842 64.9248 74.4482 63.5936 72.605 63.5936C71.837 63.5936 71.0178 63.8752 70.1474 64.4384C69.3282 64.9504 68.637 65.7696 68.0738 66.896C67.5106 68.0224 67.229 69.456 67.229 71.1968C67.229 73.5008 67.8434 75.2416 69.0722 76.4192C70.301 77.5456 72.221 78.1088 74.8322 78.1088V83.9456C71.2482 83.9456 68.2274 83.3568 65.7698 82.1792C63.3122 81.0016 61.469 79.3888 60.2402 77.3408C59.0114 75.2928 58.397 72.9888 58.397 70.4288C58.397 67.5616 59.037 65.0272 60.317 62.8256C61.597 60.5728 63.3378 58.8064 65.5394 57.5264C67.741 56.2464 70.173 55.6064 72.8354 55.6064C76.061 55.6064 78.8002 56.6048 81.053 58.6016C83.3058 60.5472 85.021 63.2608 86.1986 66.7424C87.4274 70.224 88.0418 74.32 88.0418 79.0304C88.1442 80.5664 88.221 81.8976 88.2722 83.024C88.3234 84.1504 88.3746 84.8416 88.4258 85.0976L87.4274 86.096H53.5586Z" fill="#121212"/>
<path d="M72.8474 47.2256C71.6698 47.2256 70.6713 46.8416 69.8521 46.0736C69.0841 45.2544 68.7001 44.2816 68.7001 43.1552C68.7001 41.9776 69.1097 41.0048 69.9289 40.2368C70.7481 39.4176 71.7209 39.008 72.8474 39.008C74.0249 39.008 74.9977 39.4176 75.7657 40.2368C76.585 41.0048 76.9946 41.9776 76.9946 43.1552C76.9946 44.2816 76.585 45.2544 75.7657 46.0736C74.9465 46.8416 73.9738 47.2256 72.8474 47.2256Z" fill="#121212"/>
</svg>
