<svg width="71" height="71" viewBox="0 0 71 71" fill="none" xmlns="http://www.w3.org/2000/svg">
<rect x="0.714287" y="0.408691" width="70" height="70" rx="20" fill="white"/>
<path fill-rule="evenodd" clip-rule="evenodd" d="M35.7143 35.4087C35.7143 30.5762 39.6318 26.6587 44.4643 26.6587C49.2968 26.6587 53.2143 30.5762 53.2143 35.4087C53.2143 40.2412 49.2968 44.1587 44.4643 44.1587C39.6318 44.1587 35.7143 40.2412 35.7143 35.4087Z" fill="#1ABCFE"/>
<path fill-rule="evenodd" clip-rule="evenodd" d="M18.2143 52.9087C18.2143 48.0762 22.1318 44.1587 26.9643 44.1587H35.7143V52.9087C35.7143 57.7412 31.7968 61.6587 26.9643 61.6587C22.1318 61.6587 18.2143 57.7412 18.2143 52.9087Z" fill="#0ACF83"/>
<path fill-rule="evenodd" clip-rule="evenodd" d="M35.7143 9.15869V26.6587H44.4643C49.2968 26.6587 53.2143 22.7412 53.2143 17.9087C53.2143 13.0762 49.2968 9.15869 44.4643 9.15869H35.7143Z" fill="#FF7262"/>
<path fill-rule="evenodd" clip-rule="evenodd" d="M18.2143 17.9087C18.2143 22.7412 22.1318 26.6587 26.9643 26.6587H35.7143V9.15869H26.9643C22.1318 9.15869 18.2143 13.0762 18.2143 17.9087Z" fill="#F24E1E"/>
<path fill-rule="evenodd" clip-rule="evenodd" d="M18.2143 35.4087C18.2143 40.2412 22.1318 44.1587 26.9643 44.1587H35.7143V26.6587H26.9643C22.1318 26.6587 18.2143 30.5762 18.2143 35.4087Z" fill="#A259FF"/>
</svg>
