<svg width="60" height="61" viewBox="0 0 60 61" fill="none" xmlns="http://www.w3.org/2000/svg">
<circle cx="30" cy="30.0884" r="30" fill="#F7F9FC"/>
<path fill-rule="evenodd" clip-rule="evenodd" d="M30.2845 14C21.2796 14 14 21.3333 14 30.4056C14 37.6576 18.6643 43.7962 25.1349 45.9689C25.9439 46.1322 26.2402 45.6159 26.2402 45.1815C26.2402 44.8012 26.2136 43.4975 26.2136 42.1392C21.6836 43.1172 20.7403 40.1836 20.7403 40.1836C20.0123 38.2822 18.9336 37.7936 18.9336 37.7936C17.451 36.7886 19.0416 36.7886 19.0416 36.7886C20.6863 36.8972 21.5493 38.4726 21.5493 38.4726C23.0049 40.9712 25.3506 40.2652 26.2942 39.8306C26.4289 38.7712 26.8605 38.0379 27.3189 37.6306C23.7059 37.2502 19.9046 35.8379 19.9046 29.5363C19.9046 27.7436 20.5513 26.2769 21.5759 25.1363C21.4143 24.729 20.8479 23.0446 21.7379 20.7903C21.7379 20.7903 23.1129 20.3556 26.2132 22.4743C27.5406 22.1152 28.9094 21.9325 30.2845 21.931C31.6595 21.931 33.0612 22.1213 34.3555 22.4743C37.4561 20.3556 38.8311 20.7903 38.8311 20.7903C39.7211 23.0446 39.1544 24.729 38.9928 25.1363C40.0444 26.2769 40.6644 27.7436 40.6644 29.5363C40.6644 35.8379 36.8631 37.2229 33.2232 37.6306C33.8165 38.1466 34.3285 39.1242 34.3285 40.6726C34.3285 42.8725 34.3018 44.6382 34.3018 45.1812C34.3018 45.6159 34.5985 46.1322 35.4071 45.9692C41.8777 43.7959 46.542 37.6576 46.542 30.4056C46.5687 21.3333 39.2624 14 30.2845 14Z" fill="#454238"/>
</svg>
