<svg width="22" height="22" viewBox="0 0 22 22" fill="none" xmlns="http://www.w3.org/2000/svg">
<path d="M19.9375 0H2.0625C0.928125 0 0 0.928125 0 2.0625V19.9375C0 21.0719 0.928125 22 2.0625 22H19.9375C21.0719 22 22 21.0719 22 19.9375V2.0625C22 0.928125 21.0719 0 19.9375 0ZM8.25 17.875H5.5V8.25H8.25V17.875ZM6.875 6.875C6.51033 6.875 6.16059 6.73013 5.90273 6.47227C5.64487 6.21441 5.5 5.86467 5.5 5.5C5.5 5.13533 5.64487 4.78559 5.90273 4.52773C6.16059 4.26987 6.51033 4.125 6.875 4.125C7.23967 4.125 7.58941 4.26987 7.84727 4.52773C8.10513 4.78559 8.25 5.13533 8.25 5.5C8.25 5.86467 8.10513 6.21441 7.84727 6.47227C7.58941 6.73013 7.23967 6.875 6.875 6.875ZM17.875 17.875H15.125V12.375C15.125 12.0103 14.9801 11.6606 14.7223 11.4027C14.4644 11.1449 14.1147 11 13.75 11C13.3853 11 13.0356 11.1449 12.7777 11.4027C12.5199 11.6606 12.375 12.0103 12.375 12.375V17.875H9.625V8.25H12.375V9.95638C12.9415 9.17813 13.8105 8.25 14.7812 8.25C16.4918 8.25 17.875 9.78863 17.875 11.6875V17.875Z" fill="#416BFF"/>
</svg>
