<svg width="251" height="48" viewBox="0 0 251 48" fill="none" xmlns="http://www.w3.org/2000/svg">
<path d="M27.915 23.5003C27.445 24.6369 27.21 25.7343 27.21 26.7925L34.5642 22.5381C36.3022 21.5327 37.3725 19.677 37.3725 17.6691V15.0345L32.3207 17.974C31.4199 18.4835 30.578 19.2478 29.7947 20.2668C29.0115 21.2467 28.3849 22.3245 27.915 23.5003Z" fill="white"/>
<path d="M17.0476 32.6716L22.1582 29.7321L17.0476 26.7925V32.6716Z" fill="white"/>
<path fill-rule="evenodd" clip-rule="evenodd" d="M27.21 46.7812H22.1582V29.7321L17.0476 26.7925L22.1582 23.853V15.6224C22.1582 14.5641 22.3931 13.4667 22.8631 12.3301C23.333 11.1543 23.94 10.0765 24.6841 9.09665C25.4673 8.07761 26.3093 7.31334 27.21 6.80382L37.2776 1.21875L27.21 12.6829V15.0345V26.7925V46.7812Z" fill="white"/>
<path d="M32.3424 1.21875H3.79666C1.56627 1.21875 -0.183566 3.13261 0.0154428 5.35441L3.41635 43.3232C3.59171 45.281 5.23216 46.7812 7.19756 46.7812H17.0476V32.6716L14.7574 31.3543C13.0125 30.3507 11.9369 28.4912 11.9369 26.4783V23.853L17.0476 20.9135V12.6829C17.0476 11.6246 17.2825 10.5272 17.7525 9.3906C18.2224 8.21479 18.849 7.13697 19.6322 6.15713C20.2329 5.3756 20.8682 4.74392 21.538 4.26208C21.9352 3.97628 22.398 3.802 22.8717 3.67895L32.3424 1.21875Z" fill="url(#paint0_linear_217_936)"/>
<path d="M42.0474 1.21875H37.2776L27.21 12.6829V15.0345L29.4998 13.7174C31.2449 12.7137 33.3933 12.7191 35.1333 13.7316L37.3725 15.0345V17.6691C37.3725 19.677 36.3022 21.5327 34.5642 22.5381L27.21 26.7925V46.7812H40.9401C42.9937 46.7812 44.675 45.148 44.7348 43.0951L45.8421 5.12632C45.9045 2.98691 44.1874 1.21875 42.0474 1.21875Z" fill="#242424"/>
<path d="M37.2776 1.21875H32.3424L22.8717 3.67895C22.398 3.802 21.9352 3.97628 21.538 4.26208C20.8682 4.74392 20.2329 5.3756 19.6322 6.15713C18.849 7.13697 18.2224 8.21479 17.7525 9.3906C17.2825 10.5272 17.0476 11.6246 17.0476 12.6829V20.9135L22.1582 23.853V15.6224C22.1582 14.5641 22.3931 13.4667 22.8631 12.3301C23.333 11.1543 23.94 10.0765 24.6841 9.09665C25.4673 8.07761 26.3093 7.31334 27.21 6.80382L37.2776 1.21875Z" fill="#242424"/>
<path fill-rule="evenodd" clip-rule="evenodd" d="M17.0476 26.7925L22.1582 23.853V15.6224C22.1582 14.5641 22.3931 13.4667 22.8631 12.3301C23.333 11.1543 23.94 10.0765 24.6841 9.09665C25.4673 8.07761 26.3093 7.31334 27.21 6.80382L37.2776 1.21875L27.21 12.6829V15.0345V26.7925V46.7812H22.1582V29.7321L17.0476 32.6716V26.7925ZM37.3725 15.0345L32.3207 17.974C31.4199 18.4835 30.578 19.2478 29.7947 20.2668C29.0115 21.2467 28.3849 22.3245 27.915 23.5003C27.445 24.6369 27.21 25.7343 27.21 26.7925L34.5642 22.5381C36.3022 21.5327 37.3725 19.677 37.3725 17.6691V15.0345Z" fill="white"/>
<path d="M27.21 15.0345V26.7925C27.21 25.7343 27.445 24.6369 27.915 23.5003C28.3849 22.3245 29.0115 21.2467 29.7947 20.2668C30.578 19.2478 31.4199 18.4835 32.3207 17.974L37.3725 15.0345L35.1333 13.7316C33.3933 12.7191 31.2449 12.7137 29.4998 13.7174L27.21 15.0345Z" fill="#242424"/>
<path d="M17.0476 32.6716V26.7925L11.9369 23.853V26.4783C11.9369 28.4912 13.0125 30.3507 14.7574 31.3543L17.0476 32.6716Z" fill="#242424"/>
<path d="M17.0476 26.7925L22.1582 23.853L17.0476 20.9135L11.9369 23.853L17.0476 26.7925Z" fill="#242424"/>
<path d="M17.0476 46.7812H22.1582V29.7321L17.0476 32.6716V46.7812Z" fill="#242424"/>
<path d="M68.1641 42.5V11.5625H78.7812V15.6582H72.875V23.8848H78.3594V27.998H72.875V42.5H68.1641ZM85.8477 42.7637C84.043 42.7637 82.7891 42.1074 82.0859 40.7949C81.3945 39.4824 81.0371 37.7422 81.0137 35.5742V33.8867C81.0137 32.4805 81.2129 31.3379 81.6113 30.459C82.0215 29.5801 82.6016 28.8652 83.3516 28.3145C84.1016 27.7637 84.998 27.2832 86.041 26.873C87.084 26.4629 88.2441 26.0234 89.5215 25.5547V23.252C89.5215 22.3613 89.4863 21.6523 89.416 21.125C89.3457 20.5859 89.1875 20.1934 88.9414 19.9473C88.6953 19.7012 88.3145 19.5781 87.7988 19.5781C87.2949 19.5781 86.9082 19.707 86.6387 19.9648C86.3809 20.2109 86.2051 20.5977 86.1113 21.125C86.0176 21.6406 85.9707 22.3027 85.9707 23.1113V24.2891H81.3652V23.498C81.3652 22.291 81.4648 21.2129 81.6641 20.2637C81.875 19.3145 82.2266 18.5117 82.7188 17.8555C83.2109 17.1875 83.8789 16.6836 84.7227 16.3438C85.5781 15.9922 86.6504 15.8164 87.9395 15.8164C89.0762 15.8164 90.0488 15.9805 90.8574 16.3086C91.666 16.625 92.3223 17.1055 92.8262 17.75C93.3301 18.3828 93.6992 19.1797 93.9336 20.1406C94.168 21.1016 94.2852 22.2207 94.2852 23.498V42.5H89.5918V39.8809C89.4512 40.3848 89.2109 40.8594 88.8711 41.3047C88.5312 41.7383 88.1035 42.0898 87.5879 42.3594C87.084 42.6289 86.5039 42.7637 85.8477 42.7637ZM87.4648 39.1777C88.0508 39.1777 88.5195 38.9668 88.8711 38.5449C89.2227 38.123 89.4395 37.6953 89.5215 37.2617V28.1914C88.8184 28.5078 88.2266 28.8066 87.7461 29.0879C87.2656 29.3574 86.8789 29.6562 86.5859 29.9844C86.293 30.3125 86.082 30.6992 85.9531 31.1445C85.8242 31.5898 85.7598 32.1348 85.7598 32.7793V35.7324C85.7598 36.9395 85.8828 37.8184 86.1289 38.3691C86.3867 38.9082 86.832 39.1777 87.4648 39.1777ZM98.6094 42.5V16.1328H103.303V19.0684C103.607 18.0488 104.135 17.252 104.885 16.6777C105.646 16.1035 106.613 15.8164 107.785 15.8164C107.809 15.8164 107.82 16.0156 107.82 16.4141C107.832 16.8125 107.838 17.2695 107.838 17.7852C107.838 18.3008 107.838 18.7578 107.838 19.1562C107.838 19.5547 107.838 19.7539 107.838 19.7539C107.299 19.7539 106.713 19.8184 106.08 19.9473C105.459 20.0762 104.891 20.2754 104.375 20.5449C103.871 20.8027 103.514 21.1484 103.303 21.582V42.5H98.6094ZM110.932 42.5V11.2988H115.59V19.1562C115.824 18.2539 116.293 17.4746 116.996 16.8184C117.711 16.1504 118.607 15.8164 119.686 15.8164C121.221 15.8164 122.375 16.3262 123.148 17.3457C123.934 18.3535 124.326 19.8184 124.326 21.7402V42.5H119.686V22.1797C119.686 21.3359 119.521 20.7031 119.193 20.2812C118.877 19.8477 118.42 19.6309 117.822 19.6309C117.342 19.6309 116.932 19.7656 116.592 20.0352C116.264 20.3047 116.012 20.6855 115.836 21.1777C115.672 21.6699 115.59 22.2441 115.59 22.9004V42.5H110.932ZM133.098 42.7637C131.293 42.7637 130.039 42.1074 129.336 40.7949C128.645 39.4824 128.287 37.7422 128.264 35.5742V33.8867C128.264 32.4805 128.463 31.3379 128.861 30.459C129.271 29.5801 129.852 28.8652 130.602 28.3145C131.352 27.7637 132.248 27.2832 133.291 26.873C134.334 26.4629 135.494 26.0234 136.771 25.5547V23.252C136.771 22.3613 136.736 21.6523 136.666 21.125C136.596 20.5859 136.438 20.1934 136.191 19.9473C135.945 19.7012 135.564 19.5781 135.049 19.5781C134.545 19.5781 134.158 19.707 133.889 19.9648C133.631 20.2109 133.455 20.5977 133.361 21.125C133.268 21.6406 133.221 22.3027 133.221 23.1113V24.2891H128.615V23.498C128.615 22.291 128.715 21.2129 128.914 20.2637C129.125 19.3145 129.477 18.5117 129.969 17.8555C130.461 17.1875 131.129 16.6836 131.973 16.3438C132.828 15.9922 133.9 15.8164 135.189 15.8164C136.326 15.8164 137.299 15.9805 138.107 16.3086C138.916 16.625 139.572 17.1055 140.076 17.75C140.58 18.3828 140.949 19.1797 141.184 20.1406C141.418 21.1016 141.535 22.2207 141.535 23.498V42.5H136.842V39.8809C136.701 40.3848 136.461 40.8594 136.121 41.3047C135.781 41.7383 135.354 42.0898 134.838 42.3594C134.334 42.6289 133.754 42.7637 133.098 42.7637ZM134.715 39.1777C135.301 39.1777 135.77 38.9668 136.121 38.5449C136.473 38.123 136.689 37.6953 136.771 37.2617V28.1914C136.068 28.5078 135.477 28.8066 134.996 29.0879C134.516 29.3574 134.129 29.6562 133.836 29.9844C133.543 30.3125 133.332 30.6992 133.203 31.1445C133.074 31.5898 133.01 32.1348 133.01 32.7793V35.7324C133.01 36.9395 133.133 37.8184 133.379 38.3691C133.637 38.9082 134.082 39.1777 134.715 39.1777ZM145.842 42.5V16.1328H150.5V19.1562C150.734 18.2539 151.227 17.4746 151.977 16.8184C152.727 16.1504 153.646 15.8164 154.736 15.8164C156.26 15.8164 157.402 16.3262 158.164 17.3457C158.926 18.3535 159.307 19.8184 159.307 21.7402V42.5H154.648V22.0215C154.648 21.2598 154.473 20.6621 154.121 20.2285C153.781 19.7949 153.312 19.5781 152.715 19.5781C152.234 19.5781 151.824 19.7129 151.484 19.9824C151.156 20.2402 150.91 20.6035 150.746 21.0723C150.582 21.5293 150.5 22.0684 150.5 22.6895V42.5H145.842Z" fill="black"/>
<path d="M169.432 42.8516C168.143 42.8516 167.064 42.6523 166.197 42.2539C165.342 41.8438 164.662 41.252 164.158 40.4785C163.666 39.6934 163.314 38.7441 163.104 37.6309C162.893 36.5059 162.787 35.2285 162.787 33.7988V31.0391H167.252V34.1504C167.252 35.8145 167.393 37.0098 167.674 37.7363C167.955 38.4629 168.512 38.8262 169.344 38.8262C169.906 38.8262 170.328 38.6973 170.609 38.4395C170.902 38.1699 171.096 37.748 171.189 37.1738C171.295 36.5879 171.348 35.8262 171.348 34.8887C171.348 33.7285 171.102 32.668 170.609 31.707C170.129 30.7461 169.396 29.75 168.412 28.7188L166.127 26.3633C165.494 25.707 164.92 25.0098 164.404 24.2715C163.9 23.5332 163.496 22.7129 163.191 21.8105C162.898 20.8965 162.752 19.877 162.752 18.752C162.752 17.123 162.951 15.7461 163.35 14.6211C163.748 13.4961 164.422 12.6465 165.371 12.0723C166.32 11.4863 167.621 11.1934 169.273 11.1934C170.516 11.1934 171.535 11.3867 172.332 11.7734C173.141 12.1484 173.768 12.7051 174.213 13.4434C174.67 14.1699 174.992 15.0605 175.18 16.1152C175.367 17.1582 175.461 18.3535 175.461 19.7012V21.6172H171.119V19.4023C171.119 18.4648 171.066 17.6855 170.961 17.0645C170.867 16.4434 170.686 15.9805 170.416 15.6758C170.146 15.3594 169.754 15.2012 169.238 15.2012C168.746 15.2012 168.348 15.3125 168.043 15.5352C167.738 15.7461 167.516 16.0801 167.375 16.5371C167.246 16.9824 167.182 17.5625 167.182 18.2773C167.182 18.9219 167.264 19.4785 167.428 19.9473C167.592 20.416 167.844 20.8672 168.184 21.3008C168.523 21.7344 168.945 22.2207 169.449 22.7598L171.998 25.5195C173.217 26.832 174.166 28.1973 174.846 29.6152C175.525 31.0332 175.865 32.6152 175.865 34.3613C175.865 36.2129 175.666 37.7715 175.268 39.0371C174.869 40.291 174.201 41.2402 173.264 41.8848C172.326 42.5293 171.049 42.8516 169.432 42.8516ZM179.24 42.5V11.2988H183.898V19.1562C184.133 18.2539 184.602 17.4746 185.305 16.8184C186.02 16.1504 186.916 15.8164 187.994 15.8164C189.529 15.8164 190.684 16.3262 191.457 17.3457C192.242 18.3535 192.635 19.8184 192.635 21.7402V42.5H187.994V22.1797C187.994 21.3359 187.83 20.7031 187.502 20.2812C187.186 19.8477 186.729 19.6309 186.131 19.6309C185.65 19.6309 185.24 19.7656 184.9 20.0352C184.572 20.3047 184.32 20.6855 184.145 21.1777C183.98 21.6699 183.898 22.2441 183.898 22.9004V42.5H179.24ZM201.406 42.7637C199.602 42.7637 198.348 42.1074 197.645 40.7949C196.953 39.4824 196.596 37.7422 196.572 35.5742V33.8867C196.572 32.4805 196.771 31.3379 197.17 30.459C197.58 29.5801 198.16 28.8652 198.91 28.3145C199.66 27.7637 200.557 27.2832 201.6 26.873C202.643 26.4629 203.803 26.0234 205.08 25.5547V23.252C205.08 22.3613 205.045 21.6523 204.975 21.125C204.904 20.5859 204.746 20.1934 204.5 19.9473C204.254 19.7012 203.873 19.5781 203.357 19.5781C202.854 19.5781 202.467 19.707 202.197 19.9648C201.939 20.2109 201.764 20.5977 201.67 21.125C201.576 21.6406 201.529 22.3027 201.529 23.1113V24.2891H196.924V23.498C196.924 22.291 197.023 21.2129 197.223 20.2637C197.434 19.3145 197.785 18.5117 198.277 17.8555C198.77 17.1875 199.438 16.6836 200.281 16.3438C201.137 15.9922 202.209 15.8164 203.498 15.8164C204.635 15.8164 205.607 15.9805 206.416 16.3086C207.225 16.625 207.881 17.1055 208.385 17.75C208.889 18.3828 209.258 19.1797 209.492 20.1406C209.727 21.1016 209.844 22.2207 209.844 23.498V42.5H205.15V39.8809C205.01 40.3848 204.77 40.8594 204.43 41.3047C204.09 41.7383 203.662 42.0898 203.146 42.3594C202.643 42.6289 202.062 42.7637 201.406 42.7637ZM203.023 39.1777C203.609 39.1777 204.078 38.9668 204.43 38.5449C204.781 38.123 204.998 37.6953 205.08 37.2617V28.1914C204.377 28.5078 203.785 28.8066 203.305 29.0879C202.824 29.3574 202.438 29.6562 202.145 29.9844C201.852 30.3125 201.641 30.6992 201.512 31.1445C201.383 31.5898 201.318 32.1348 201.318 32.7793V35.7324C201.318 36.9395 201.441 37.8184 201.688 38.3691C201.945 38.9082 202.391 39.1777 203.023 39.1777ZM214.221 42.5V11.2988H218.879V28.1211L223.379 16.1328H228.107L223.027 29.1055L228.406 42.5H223.66L218.879 29.9668V42.5H214.221ZM231.148 42.5V16.1328H235.807V42.5H231.148ZM231.131 13.707V9.66406H235.824V13.707H231.131ZM240.535 42.5V16.1328H245.229V19.0684C245.533 18.0488 246.061 17.252 246.811 16.6777C247.572 16.1035 248.539 15.8164 249.711 15.8164C249.734 15.8164 249.746 16.0156 249.746 16.4141C249.758 16.8125 249.764 17.2695 249.764 17.7852C249.764 18.3008 249.764 18.7578 249.764 19.1562C249.764 19.5547 249.764 19.7539 249.764 19.7539C249.225 19.7539 248.639 19.8184 248.006 19.9473C247.385 20.0762 246.816 20.2754 246.301 20.5449C245.797 20.8027 245.439 21.1484 245.229 21.582V42.5H240.535Z" fill="#416BFF"/>
<defs>
<linearGradient id="paint0_linear_217_936" x1="-1.10181e-10" y1="24" x2="45.8437" y2="24" gradientUnits="userSpaceOnUse">
<stop stop-color="#3378FF"/>
<stop offset="1" stop-color="#9442FE"/>
</linearGradient>
</defs>
</svg>
