<svg width="46" height="46" viewBox="0 0 46 46" fill="none" xmlns="http://www.w3.org/2000/svg">
<path d="M27.9931 22.5003C27.5231 23.6369 27.2882 24.7343 27.2882 25.7925L34.6424 21.5381C36.3804 20.5327 37.4507 18.677 37.4507 16.6691V14.0345L32.3988 16.974C31.4981 17.4835 30.6561 18.2478 29.8728 19.2668C29.0896 20.2467 28.463 21.3245 27.9931 22.5003Z" fill="white"/>
<path d="M17.1257 31.6716L22.2363 28.7321L17.1257 25.7925V31.6716Z" fill="white"/>
<path fill-rule="evenodd" clip-rule="evenodd" d="M27.2882 45.7812H22.2363V28.7321L17.1257 25.7925L22.2363 22.853V14.6224C22.2363 13.5641 22.4713 12.4667 22.9412 11.3301C23.4111 10.1543 24.0182 9.07648 24.7622 8.09665C25.5455 7.07761 26.3874 6.31334 27.2882 5.80382L37.3558 0.21875L27.2882 11.6829V14.0345V25.7925V45.7812Z" fill="white"/>
<path d="M32.4205 0.21875H3.87478C1.64439 0.21875 -0.105441 2.13261 0.0935678 4.35441L3.49447 42.3232C3.66984 44.281 5.31028 45.7812 7.27569 45.7812H17.1257V31.6716L14.8355 30.3543C13.0907 29.3507 12.0151 27.4912 12.0151 25.4783V22.853L17.1257 19.9135V11.6829C17.1257 10.6246 17.3606 9.52721 17.8306 8.3906C18.3005 7.21479 18.9271 6.13697 19.7104 5.15713C20.311 4.3756 20.9463 3.74392 21.6161 3.26208C22.0134 2.97628 22.4762 2.802 22.9499 2.67895L32.4205 0.21875Z" fill="url(#paint0_linear_342_957)"/>
<path d="M42.1255 0.21875H37.3558L27.2882 11.6829V14.0345L29.578 12.7174C31.323 11.7137 33.4714 11.7191 35.2115 12.7316L37.4507 14.0345V16.6691C37.4507 18.677 36.3804 20.5327 34.6424 21.5381L27.2882 25.7925V45.7812H41.0182C43.0718 45.7812 44.7531 44.148 44.813 42.0951L45.9202 4.12632C45.9826 1.98691 44.2655 0.21875 42.1255 0.21875Z" fill="#242424"/>
<path d="M37.3558 0.21875H32.4205L22.9499 2.67895C22.4762 2.802 22.0134 2.97628 21.6161 3.26208C20.9463 3.74392 20.311 4.3756 19.7104 5.15713C18.9271 6.13697 18.3005 7.21479 17.8306 8.3906C17.3606 9.52721 17.1257 10.6246 17.1257 11.6829V19.9135L22.2363 22.853V14.6224C22.2363 13.5641 22.4713 12.4667 22.9412 11.3301C23.4111 10.1543 24.0182 9.07648 24.7622 8.09665C25.5455 7.07761 26.3874 6.31334 27.2882 5.80382L37.3558 0.21875Z" fill="#242424"/>
<path fill-rule="evenodd" clip-rule="evenodd" d="M17.1257 25.7925L22.2363 22.853V14.6224C22.2363 13.5641 22.4713 12.4667 22.9412 11.3301C23.4111 10.1543 24.0182 9.07648 24.7622 8.09665C25.5455 7.07761 26.3874 6.31334 27.2882 5.80382L37.3558 0.21875L27.2882 11.6829V14.0345V25.7925V45.7812H22.2363V28.7321L17.1257 31.6716V25.7925ZM37.4507 14.0345L32.3988 16.974C31.4981 17.4835 30.6561 18.2478 29.8728 19.2668C29.0896 20.2467 28.463 21.3245 27.9931 22.5003C27.5231 23.6369 27.2882 24.7343 27.2882 25.7925L34.6424 21.5381C36.3804 20.5327 37.4507 18.677 37.4507 16.6691V14.0345Z" fill="white"/>
<path d="M27.2882 14.0345V25.7925C27.2882 24.7343 27.5231 23.6369 27.9931 22.5003C28.463 21.3245 29.0896 20.2467 29.8728 19.2668C30.6561 18.2478 31.4981 17.4835 32.3988 16.974L37.4507 14.0345L35.2115 12.7316C33.4714 11.7191 31.323 11.7137 29.578 12.7174L27.2882 14.0345Z" fill="#242424"/>
<path d="M17.1257 31.6716V25.7925L12.0151 22.853V25.4783C12.0151 27.4912 13.0907 29.3507 14.8355 30.3543L17.1257 31.6716Z" fill="#242424"/>
<path d="M17.1257 25.7925L22.2363 22.853L17.1257 19.9135L12.0151 22.853L17.1257 25.7925Z" fill="#242424"/>
<path d="M17.1257 45.7812H22.2363V28.7321L17.1257 31.6716V45.7812Z" fill="#242424"/>
<defs>
<linearGradient id="paint0_linear_342_957" x1="0.078125" y1="23" x2="45.9219" y2="23" gradientUnits="userSpaceOnUse">
<stop stop-color="#3378FF"/>
<stop offset="1" stop-color="#9442FE"/>
</linearGradient>
</defs>
</svg>
