<svg width="50" height="51" viewBox="0 0 50 51" fill="none" xmlns="http://www.w3.org/2000/svg">
<g clip-path="url(#clip0_85_7485)">
<rect y="0.5" width="50" height="50" rx="12" fill="white"/>
<g filter="url(#filter0_d_85_7485)">
<path d="M25 42.6431C34.665 42.6431 42.5 34.8081 42.5 25.1431C42.5 15.4781 34.665 7.64307 25 7.64307C15.335 7.64307 7.5 15.4781 7.5 25.1431C7.5 34.8081 15.335 42.6431 25 42.6431Z" fill="#2979FF"/>
</g>
<g filter="url(#filter1_d_85_7485)">
<path d="M25.0002 36.8104C31.4435 36.8104 36.6668 31.587 36.6668 25.1437C36.6668 18.7004 31.4435 13.4771 25.0002 13.4771C18.5568 13.4771 13.3335 18.7004 13.3335 25.1437C13.3335 31.587 18.5568 36.8104 25.0002 36.8104Z" fill="#40C4FF"/>
</g>
<path d="M24.9998 30.9757C28.2215 30.9757 30.8332 28.3641 30.8332 25.1424C30.8332 21.9208 28.2215 19.3091 24.9998 19.3091C21.7782 19.3091 19.1665 21.9208 19.1665 25.1424C19.1665 28.3641 21.7782 30.9757 24.9998 30.9757Z" fill="#FAFAFA"/>
</g>
<defs>
<filter id="filter0_d_85_7485" x="-88.5" y="7.64307" width="227" height="227" filterUnits="userSpaceOnUse" color-interpolation-filters="sRGB">
<feFlood flood-opacity="0" result="BackgroundImageFix"/>
<feColorMatrix in="SourceAlpha" type="matrix" values="0 0 0 0 0 0 0 0 0 0 0 0 0 0 0 0 0 0 127 0" result="hardAlpha"/>
<feOffset dy="96"/>
<feGaussianBlur stdDeviation="48"/>
<feColorMatrix type="matrix" values="0 0 0 0 0.0256 0 0 0 0 0.18944 0 0 0 0 0.64 0 0 0 0.16 0"/>
<feBlend mode="normal" in2="BackgroundImageFix" result="effect1_dropShadow_85_7485"/>
<feBlend mode="normal" in="SourceGraphic" in2="effect1_dropShadow_85_7485" result="shape"/>
</filter>
<filter id="filter1_d_85_7485" x="-82.6665" y="13.4771" width="215.333" height="215.333" filterUnits="userSpaceOnUse" color-interpolation-filters="sRGB">
<feFlood flood-opacity="0" result="BackgroundImageFix"/>
<feColorMatrix in="SourceAlpha" type="matrix" values="0 0 0 0 0 0 0 0 0 0 0 0 0 0 0 0 0 0 127 0" result="hardAlpha"/>
<feOffset dy="96"/>
<feGaussianBlur stdDeviation="48"/>
<feColorMatrix type="matrix" values="0 0 0 0 0.0256 0 0 0 0 0.27136 0 0 0 0 0.64 0 0 0 0.16 0"/>
<feBlend mode="normal" in2="BackgroundImageFix" result="effect1_dropShadow_85_7485"/>
<feBlend mode="normal" in="SourceGraphic" in2="effect1_dropShadow_85_7485" result="shape"/>
</filter>
<clipPath id="clip0_85_7485">
<rect y="0.5" width="50" height="50" rx="12" fill="white"/>
</clipPath>
</defs>
</svg>
