<svg width="222" height="105" viewBox="0 0 222 105" fill="none" xmlns="http://www.w3.org/2000/svg">
<g clip-path="url(#clip0_607_7194)">
<path d="M145.04 104.481C143.21 104.086 141.37 103.751 139.554 103.296C124.083 99.4112 114.547 86.6462 114.887 70.0412C115.124 57.7312 119.436 47.2712 129.914 40.4712C140.911 33.3362 152.499 33.8762 163.954 39.5212C165.814 40.4362 167.314 42.1012 169.164 43.5612C169.281 43.1139 169.36 42.6572 169.401 42.1962C169.401 28.6962 169.401 15.1962 169.401 1.6962C169.369 1.28693 169.306 0.880726 169.213 0.481201L190.92 0.481201C190.964 1.0612 191.043 1.6362 191.043 2.2162C191.043 34.9129 191.043 67.6095 191.043 100.306C191.043 101.036 190.964 101.761 190.91 102.626H171.073V95.0312C167.566 97.3512 164.231 99.9062 160.58 101.851C158.113 103.171 155.153 103.636 152.44 104.481H145.04ZM154.103 53.2762C140.003 53.0662 131.824 66.3112 138.493 78.5512C142.988 86.7862 156.505 89.4012 164.601 83.5212C165.94 82.562 167.108 81.3784 168.054 80.0212C171.932 74.3312 172.267 68.1412 169.445 62.0212C166.49 55.5912 160.827 53.3162 154.103 53.2762Z" fill="white"/>
<path d="M0 80.4812C3.66547 76.8162 7.34573 73.1662 10.9865 69.4812C14.4399 65.9812 17.8587 62.4412 21.7313 58.4812V102.981H0V80.4812Z" fill="white"/>
<path d="M222 18.9812C220.091 23.2112 217.417 26.5562 212.666 27.7062C204.773 29.6162 197.042 24.3062 196.879 16.7362C196.761 11.7012 199.233 8.11621 203.544 5.98121C208.162 3.69621 212.957 3.77621 216.983 7.14621C219.084 8.90121 220.362 11.6462 222.015 13.9812L222 18.9812Z" fill="white"/>
<path d="M87.0141 102.516V99.4262C87.0141 89.7595 87.0141 80.0929 87.0141 70.4262C87.0141 66.5312 86.3333 62.7712 82.9984 60.4262C81.1095 59.1754 78.966 58.3737 76.7281 58.0812C73.9901 57.6862 71.1436 58.1212 68.3415 57.9412C66.1165 57.7912 65.3815 58.4412 65.4111 60.8112C65.5196 73.8112 65.4604 86.8112 65.4604 99.7862V102.826H43.5416C43.4972 101.866 43.4183 100.981 43.4183 100.101C43.4183 90.0212 43.4183 79.9462 43.4183 69.8662C43.4183 66.2062 42.4316 62.7862 39.3976 60.6512C37.597 59.415 35.5259 58.6426 33.3641 58.4012C29.8171 58.0412 26.2059 58.3012 22.1112 58.3012C22.577 57.5611 23.0861 56.8498 23.6356 56.1712C29.6247 49.9262 35.5989 43.6162 41.7163 37.4812C42.7414 36.5866 44.0591 36.1123 45.4113 36.1512C58.0555 36.7312 65.6873 46.4012 65.5048 56.2462C65.5598 56.5603 65.6492 56.8672 65.7712 57.1612C66.3879 56.5862 66.9355 56.1262 67.4239 55.6162C73.2847 49.5462 79.0813 43.4162 85.0359 37.4512C86.0928 36.4738 87.468 35.9255 88.8987 35.9112C101.918 36.3512 109.416 46.2612 109.125 57.0312C108.741 71.3462 108.997 85.6812 109.071 100.006C109.071 102.006 108.622 102.786 106.496 102.736C100.827 102.596 95.1492 102.691 89.4857 102.681C88.7606 102.661 88.0403 102.581 87.0141 102.516Z" fill="white"/>
<path d="M219.938 102.616H198.813V37.2362C199.391 37.1169 199.976 37.0367 200.565 36.9962C206.396 36.9962 212.232 36.9962 218.063 36.9962C219.326 36.9962 220.273 37.0412 220.268 38.7862C220.219 59.7862 220.198 80.7695 220.204 101.736C220.148 102.039 220.058 102.334 219.938 102.616Z" fill="white"/>
<path d="M0 47.0909C0 40.5707 5.21517 35.2851 11.6483 35.2851C18.0816 35.2851 23.2967 40.5707 23.2967 47.0909C23.2967 53.6112 18.0816 58.8967 11.6483 58.8967C5.21517 58.8967 0 53.6112 0 47.0909Z" fill="#E98529"/>
</g>
<defs>
<clipPath id="clip0_607_7194">
<rect width="222" height="104" fill="white" transform="translate(0 0.481201)"/>
</clipPath>
</defs>
</svg>
