<svg width="479" height="59" viewBox="0 0 479 59" fill="none" xmlns="http://www.w3.org/2000/svg">
<path d="M208.381 58.9957H207.428V0.597984H208.381V58.9957Z" fill="white"/>
<path d="M43.1955 6.35028C43.1955 9.59867 40.4818 12.2184 37.1777 12.0994C34.172 11.9896 31.7197 9.56205 31.6028 6.57915C31.4737 3.29719 34.1181 0.596559 37.3961 0.596559C40.6002 0.596559 43.1955 3.17208 43.1955 6.35028Z" fill="white"/>
<path d="M191.543 16.0252C190.775 14.4536 189.627 13.0209 188.156 11.9529C186.658 10.8909 184.979 10.1891 182.982 10.0548L183.106 10.0609C178.772 9.41551 174.394 9.84273 170.168 10.6194C165.937 11.4372 161.808 12.6425 157.796 14.118C149.778 17.0841 142.094 20.7978 134.7 24.9571C127.303 29.1179 120.109 33.6037 113.118 38.3703C111.009 39.8213 108.921 41.2952 106.845 42.7828C106.722 42.8698 106.566 42.7279 106.644 42.5982L110.628 36.0419C114.982 28.883 119.359 21.6919 123.756 14.6657L125.418 12.1146L126.167 11.0664C126.607 10.4851 126.974 9.95716 127.342 9.36974C127.698 8.80215 128 8.19031 128.283 7.45031C128.284 7.44725 128.284 7.44572 128.286 7.44267C128.318 7.34045 128.352 7.23822 128.387 7.13294H128.383C128.547 6.64164 128.636 6.11677 128.636 5.57054C128.636 2.82413 126.393 0.596493 123.622 0.596493C123.358 0.596493 123.098 0.617855 122.844 0.657528C122.789 0.666683 122.738 0.675831 122.689 0.684986C122.637 0.694141 122.585 0.704823 122.532 0.71703C122.293 0.768906 122.091 0.825363 121.877 0.881817C121.874 0.881817 121.873 0.883339 121.87 0.883339C119.299 1.71032 117.536 2.65477 115.543 3.60381L109.848 6.51195C102.376 10.4851 95.0159 14.5177 87.556 18.3734C72.6654 26.0847 57.5856 33.4801 41.8187 38.9562C33.9298 41.5866 25.8411 43.8692 17.5755 44.3605C13.4673 44.571 9.27766 44.3788 5.36782 43.0681C4.3992 42.7462 3.45825 42.348 2.65722 41.7941C1.86233 41.2479 1.25655 40.4575 1.35034 39.5161C1.44874 38.5793 2.05913 37.6837 2.74178 36.9223C2.81097 36.846 2.88168 36.7682 2.95394 36.6934C3.07541 36.5653 2.89707 36.3761 2.76331 36.492C2.68182 36.5607 2.60032 36.6324 2.52191 36.7056C1.75009 37.4243 0.985964 38.2711 0.735353 39.4292C0.475517 40.633 1.21965 41.8277 2.07757 42.5189C2.94164 43.2619 3.93487 43.7639 4.9327 44.1881C8.93325 45.8954 13.3166 46.4889 17.6185 46.5729C26.2669 46.6324 34.76 44.8899 42.961 42.5753C51.1835 40.2516 59.1923 37.3221 67.0351 34.0569C74.8809 30.7993 82.6145 27.2992 90.2066 23.5549C97.808 19.8366 105.334 15.9626 112.819 12.168L118.403 9.36821L119.29 8.94252C119.417 8.88149 119.545 9.02644 119.468 9.14392L118.158 11.1198C113.543 18.262 109.308 25.4835 104.982 32.6944L98.5306 43.5015L95.2957 48.8829C94.2318 50.6055 93.0894 52.5844 92.1331 54.0187L92.047 54.1468C91.2982 55.2744 91.3474 56.7971 92.2684 57.8835C93.3892 59.2033 95.3772 59.3726 96.7087 58.2603C103.028 52.9781 109.687 47.8744 116.427 43.0071C123.177 38.1261 130.042 33.3993 137.142 29.066C144.251 24.7603 151.494 20.6407 159.112 17.3984C166.686 14.2278 174.727 11.4494 182.899 11.9041L182.987 11.9086H183.023C184.407 11.8812 186.046 12.3404 187.35 13.1445C188.688 13.9517 189.813 15.128 190.648 16.5104C191.886 18.5214 192.561 20.8619 192.905 23.2666C192.93 23.4405 193.189 23.4176 193.183 23.2421C193.085 20.7902 192.647 18.3276 191.543 16.0252Z" fill="white"/>
<path d="M224.1 6.60798H228.342L242.293 24.4779V6.60798H246.795V32.4532H242.964L228.602 14.066V32.4532H224.1V6.60798Z" fill="white"/>
<path d="M269.262 22.1884L264.76 11.8497L260.296 22.1884H269.262ZM262.714 6.42252H266.956L278.415 32.4523H273.578L270.937 26.2134H258.621L255.943 32.4523H251.255L262.714 6.42252Z" fill="white"/>
<path d="M285.925 10.8165H277.665V6.60839H298.798V10.8165H290.539V32.4521H285.925V10.8165Z" fill="white"/>
<path d="M303.891 6.60798H308.467V32.4532H303.891V6.60798Z" fill="white"/>
<path d="M336.703 19.6041V19.5309C336.703 14.5095 333.019 10.3365 327.849 10.3365C322.676 10.3365 319.068 14.4348 319.068 19.4561V19.5309C319.068 24.5522 322.752 28.7237 327.922 28.7237C333.095 28.7237 336.703 24.6255 336.703 19.6041ZM314.268 19.6041V19.5309C314.268 12.2575 319.924 6.16504 327.922 6.16504C335.922 6.16504 341.503 12.1827 341.503 19.4561V19.5309C341.503 26.8043 335.847 32.8952 327.849 32.8952C319.849 32.8952 314.268 26.8775 314.268 19.6041Z" fill="white"/>
<path d="M347.041 6.60798H351.281L365.234 24.4779V6.60798H369.736V32.4532H365.903L351.543 14.066V32.4532H347.041V6.60798Z" fill="white"/>
<path d="M374.419 6.60802H379.366L385.579 25.7703L391.978 6.53325H395.848L402.247 25.7703L408.46 6.60802H413.26L404.183 32.6378H400.238L393.839 14.066L387.44 32.6378H383.496L374.419 6.60802Z" fill="white"/>
<path d="M418.202 6.60798H422.778V32.4532H418.202V6.60798Z" fill="white"/>
<path d="M439.444 28.3176C444.912 28.3176 448.484 24.6619 448.484 19.6039V19.5307C448.484 14.4727 444.912 10.7437 439.444 10.7437H434.308V28.3176H439.444ZM429.733 6.60729H439.444C447.628 6.60729 453.284 12.1825 453.284 19.4559V19.5307C453.284 26.8041 447.628 32.4525 439.444 32.4525H429.733V6.60729Z" fill="white"/>
<path d="M458.821 6.60798H478.13V10.6696H463.396V17.3891H476.456V21.4508H463.396V28.3916H478.316V32.4532H458.821V6.60798Z" fill="white"/>
<path d="M224.1 43.7337H226.174L229.549 48.9366L232.922 43.7337H234.998V54.7361H233.05V46.8463L229.549 52.0324H229.486L226.018 46.8768V54.7361H224.1V43.7337Z" fill="white"/>
<path d="M237.969 43.7333H239.917V54.7357H237.969V43.7333Z" fill="white"/>
<path d="M247.017 52.9765C249.345 52.9765 250.866 51.4202 250.866 49.2673V49.2353C250.866 47.0824 249.345 45.4941 247.017 45.4941H244.831V52.9765H247.017ZM242.883 43.7333H247.017C250.501 43.7333 252.909 46.1074 252.909 49.2048V49.2353C252.909 52.3326 250.501 54.7373 247.017 54.7373H242.883V43.7333Z" fill="white"/>
<path d="M259.41 52.9764C261.738 52.9764 263.258 51.4201 263.258 49.2672V49.2352C263.258 47.0823 261.738 45.4939 259.41 45.4939H257.224V52.9764H259.41ZM255.276 43.7332H259.41C262.896 43.7332 265.303 46.1073 265.303 49.2046V49.2352C265.303 52.3325 262.896 54.7371 259.41 54.7371H255.276V43.7332Z" fill="white"/>
<path d="M267.67 43.7339H269.618V52.9771H275.447V54.7363H267.67V43.7339Z" fill="white"/>
<path d="M277.482 43.7341H285.703V45.4628H279.43V48.3237H284.989V50.0524H279.43V53.0078H285.781V54.7365H277.482V43.7341Z" fill="white"/>
<path d="M292.855 43.7339H301.076V45.4626H294.803V48.3234H300.363V50.0521H294.803V53.0076H301.154V54.7363H292.855V43.7339Z" fill="white"/>
<path d="M310.19 50.367L308.274 45.9651L306.372 50.367H310.19ZM307.402 43.6551H309.207L314.086 54.7368H312.027L310.903 52.0804H305.66L304.519 54.7368H302.524L307.402 43.6551Z" fill="white"/>
<path d="M315.061 53.1333L316.233 51.7495C317.294 52.6619 318.356 53.1806 319.734 53.1806C320.937 53.1806 321.698 52.6298 321.698 51.7968V51.7662C321.698 50.9805 321.254 50.5548 319.195 50.0833C316.835 49.5188 315.504 48.8261 315.504 46.7983V46.7678C315.504 44.8804 317.089 43.5758 319.291 43.5758C320.907 43.5758 322.189 44.0641 323.313 44.9597L322.267 46.4214C321.271 45.6829 320.272 45.2893 319.258 45.2893C318.118 45.2893 317.452 45.8706 317.452 46.5938V46.6259C317.452 47.4742 317.959 47.8526 320.083 48.3546C322.427 48.9207 323.646 49.7537 323.646 51.577V51.6091C323.646 53.6674 322.014 54.8941 319.686 54.8941C317.992 54.8941 316.391 54.3128 315.061 53.1333Z" fill="white"/>
<path d="M328.434 45.5255H324.918V43.7343H333.914V45.5255H330.397V54.7367H328.434V45.5255Z" fill="white"/>
<path d="M344.948 49.4554C346.421 49.4554 347.339 48.6376 347.339 47.4902V47.4581C347.339 46.1704 346.406 45.4944 344.948 45.4944H342.683V49.4554H344.948ZM340.735 43.7337H345.106C347.688 43.7337 349.319 45.1954 349.319 47.4124V47.4429C349.319 49.9116 347.323 51.2009 344.885 51.2009H342.683V54.7361H340.735V43.7337Z" fill="white"/>
<path d="M356.123 49.1884C357.516 49.1884 358.405 48.4651 358.405 47.3483V47.3178C358.405 46.1383 357.548 45.4944 356.108 45.4944H353.273V49.1884H356.123ZM351.323 43.7337H356.266C357.659 43.7337 358.752 44.1426 359.466 44.8338C360.051 45.4319 360.384 46.2482 360.384 47.2079V47.2384C360.384 49.0465 359.29 50.1313 357.739 50.5707L360.733 54.7361H358.436L355.711 50.9018H353.273V54.7361H351.323V43.7337Z" fill="white"/>
<path d="M371.841 49.2675V49.2354C371.841 47.0978 370.273 45.3218 368.071 45.3218C365.87 45.3218 364.334 47.0658 364.334 49.2049V49.2354C364.334 51.373 365.902 53.149 368.104 53.149C370.305 53.149 371.841 51.4051 371.841 49.2675ZM362.29 49.2675V49.2354C362.29 46.1396 364.698 43.5458 368.104 43.5458C371.509 43.5458 373.885 46.1076 373.885 49.2049V49.2354C373.885 52.3327 371.477 54.925 368.071 54.925C364.666 54.925 362.29 52.3648 362.29 49.2675Z" fill="white"/>
<path d="M380.468 49.4554C381.941 49.4554 382.859 48.6376 382.859 47.4902V47.4581C382.859 46.1704 381.926 45.4944 380.468 45.4944H378.203V49.4554H380.468ZM376.255 43.7337H380.626C383.208 43.7337 384.839 45.1954 384.839 47.4124V47.4429C384.839 49.9116 382.843 51.2009 380.403 51.2009H378.203V54.7361H376.255V43.7337Z" fill="white"/>
<path d="M386.841 43.7339H395.062V45.4626H388.789V48.3234H394.348V50.0521H388.789V53.0076H395.14V54.7363H386.841V43.7339Z" fill="white"/>
<path d="M402.259 49.1884C403.652 49.1884 404.539 48.4651 404.539 47.3483V47.3178C404.539 46.1383 403.684 45.4944 402.243 45.4944H399.408V49.1884H402.259ZM397.459 43.7337H402.402C403.795 43.7337 404.888 44.1426 405.601 44.8338C406.187 45.4319 406.519 46.2482 406.519 47.2079V47.2384C406.519 49.0465 405.426 50.1313 403.875 50.5707L406.868 54.7361H404.571L401.847 50.9018H399.408V54.7361H397.459V43.7337Z" fill="white"/>
<path d="M411.595 45.5255H408.079V43.7343H417.075V45.5255H413.558V54.7367H411.595V45.5255Z" fill="white"/>
<path d="M419.253 43.7333H421.201V54.7357H419.253V43.7333Z" fill="white"/>
<path d="M424.165 43.7337H432.386V45.4624H426.113V48.3232H431.673V50.052H426.113V53.0074H432.465V54.7361H424.165V43.7337Z" fill="white"/>
<path d="M434.041 53.1335L435.212 51.7496C436.275 52.662 437.335 53.1808 438.713 53.1808C439.917 53.1808 440.678 52.63 440.678 51.7969V51.7664C440.678 50.9806 440.234 50.5549 438.175 50.0834C435.815 49.5189 434.483 48.8262 434.483 46.7984V46.7679C434.483 44.8805 436.068 43.576 438.27 43.576C439.886 43.576 441.168 44.0642 442.292 44.9599L441.247 46.4216C440.25 45.6831 439.251 45.2894 438.238 45.2894C437.097 45.2894 436.433 45.8708 436.433 46.594V46.626C436.433 47.4744 436.939 47.8527 439.062 48.3547C441.407 48.9208 442.626 49.7539 442.626 51.5772V51.6092C442.626 53.6675 440.993 54.8942 438.665 54.8942C436.971 54.8942 435.37 54.3129 434.041 53.1335Z" fill="white"/>
<path d="M449.684 43.7339H451.632V52.9771H457.46V54.7363H449.684V43.7339Z" fill="white"/>
<path d="M459.494 43.7343H461.442V52.9775H467.271V54.7367H459.494V43.7343Z" fill="white"/>
<path d="M468.179 49.2675V49.2354C468.179 46.1076 470.539 43.5458 473.897 43.5458C475.94 43.5458 477.176 44.2522 478.237 45.2592L476.986 46.6889C476.099 45.8711 475.148 45.3218 473.882 45.3218C471.758 45.3218 470.222 47.0505 470.222 49.2049V49.2354C470.222 51.3898 471.758 53.149 473.882 53.149C475.244 53.149 476.114 52.5998 477.066 51.7194L478.317 52.9766C477.16 54.1713 475.893 54.925 473.819 54.925C470.587 54.925 468.179 52.4273 468.179 49.2675Z" fill="white"/>
</svg>
