<svg width="48" height="48" viewBox="0 0 48 48" fill="none" xmlns="http://www.w3.org/2000/svg">
<path d="M0 3.6C0 1.61177 1.61178 0 3.6 0H44.4C46.3882 0 48 1.61178 48 3.6V44.4C48 46.3882 46.3882 48 44.4 48H3.6C1.61177 48 0 46.3882 0 44.4V3.6Z" fill="url(#paint0_linear_665_227)"/>
<path d="M26.7793 42.6C24.8849 42.6 22.9521 42.536 20.9809 42.408C19.0353 42.2544 17.1921 41.9856 15.4513 41.6016C13.7361 41.192 12.2513 40.5904 10.9969 39.7968L12.9169 36.6864H13.3009C14.6065 37.3264 16.3601 37.8128 18.5617 38.1456C20.7633 38.4528 23.5025 38.6064 26.7793 38.6064H37.4545C37.9409 38.6064 38.4017 38.6192 38.8369 38.6448C39.2977 38.6704 39.6817 38.7088 39.9889 38.76C40.2961 38.7856 40.4497 38.7984 40.4497 38.7984L39.6049 39.2592C39.6049 39.1568 39.6049 39.0672 39.6049 38.9904C39.6049 38.9136 39.6049 38.824 39.6049 38.7216C39.5793 36.4688 39.2465 34.6768 38.6065 33.3456C37.9921 32.0144 37.2241 31.3488 36.3025 31.3488C35.9185 31.3488 35.5089 31.4896 35.0737 31.7712C34.6641 32.0272 34.3185 32.4368 34.0369 33C33.7553 33.5632 33.6145 34.28 33.6145 35.1504C33.6145 36.3024 33.9217 37.1728 34.5361 37.7616C35.1505 38.3248 36.1105 38.6064 37.4161 38.6064V41.5248C35.6241 41.5248 34.1137 41.2304 32.8849 40.6416C31.6561 40.0528 30.7345 39.2464 30.1201 38.2224C29.5057 37.1984 29.1985 36.0464 29.1985 34.7664C29.1985 33.3328 29.5185 32.0656 30.1585 30.9648C30.7985 29.8384 31.6689 28.9552 32.7697 28.3152C33.8705 27.6752 35.0865 27.3552 36.4177 27.3552C38.0305 27.3552 39.4001 27.8544 40.5265 28.8528C41.6529 29.8256 42.5105 31.1824 43.0993 32.9232C43.7137 34.664 44.0209 36.712 44.0209 39.0672C44.0721 39.8352 44.1105 40.5008 44.1361 41.064C44.1617 41.6272 44.1873 41.9728 44.2129 42.1008L43.7137 42.6H26.7793Z" fill="white"/>
<path d="M36.4237 23.1648C35.8349 23.1648 35.3357 22.9728 34.9261 22.5888C34.5421 22.1792 34.3501 21.6928 34.3501 21.1296C34.3501 20.5408 34.5549 20.0544 34.9645 19.6704C35.3741 19.2608 35.8605 19.056 36.4237 19.056C37.0125 19.056 37.4989 19.2608 37.8829 19.6704C38.2925 20.0544 38.4973 20.5408 38.4973 21.1296C38.4973 21.6928 38.2925 22.1792 37.8829 22.5888C37.4733 22.9728 36.9869 23.1648 36.4237 23.1648Z" fill="white"/>
<defs>
<linearGradient id="paint0_linear_665_227" x1="0" y1="24" x2="48" y2="24" gradientUnits="userSpaceOnUse">
<stop stop-color="#121212"/>
<stop offset="1" stop-color="#416BFF"/>
</linearGradient>
</defs>
</svg>
